<?xml version="1.0" standalone="no"?>
<!DOCTYPE svg PUBLIC "-//W3C//DTD SVG 20010904//EN"
 "http://www.w3.org/TR/2001/REC-SVG-20010904/DTD/svg10.dtd">
<svg version="1.0" xmlns="http://www.w3.org/2000/svg"
 width="300.000000pt" height="300.000000pt" viewBox="0 0 300.000000 300.000000"
 preserveAspectRatio="xMidYMid meet">
<metadata>
Created by potrace 1.10, written by Peter Selinger 2001-2011
</metadata>
<g transform="translate(0.000000,300.000000) scale(0.100000,-0.100000)"
fill="#f4f4f4" stroke="none">
<path d="M1315 2705 c-145 -28 -300 -90 -413 -167 -68 -46 -207 -183 -257
-253 -143 -201 -214 -471 -187 -709 31 -261 124 -451 312 -636 146 -144 311
-232 515 -275 106 -23 304 -22 405 0 41 10 84 19 95 22 17 3 41 -29 145 -193
68 -108 136 -204 149 -213 15 -9 44 -16 72 -15 38 0 61 9 125 51 92 59 124 99
124 156 0 34 -18 69 -119 228 l-119 188 62 64 c126 128 223 298 267 467 27
107 37 317 19 428 -65 406 -367 735 -768 838 -125 32 -311 40 -427 19z m395
-40 c52 -10 97 -21 100 -25 3 -3 34 -18 70 -33 209 -88 405 -270 507 -472 34
-67 81 -216 94 -295 15 -100 5 -313 -19 -405 -47 -172 -126 -313 -253 -449
-48 -52 -69 -82 -69 -100 0 -15 42 -92 106 -193 125 -197 128 -205 114 -250
-12 -33 -99 -104 -163 -131 -80 -34 -104 -15 -221 173 -41 66 -79 125 -83 130
-4 6 -19 27 -33 47 -40 60 -52 62 -171 38 -458 -92 -914 140 -1114 567 -65
138 -102 333 -90 473 25 312 167 573 408 752 75 56 232 138 262 138 8 0 15 3
15 8 0 6 148 37 220 45 69 8 236 -2 320 -18z"/>
<path d="M1433 2509 c-156 -14 -272 -53 -400 -135 -110 -70 -219 -192 -286
-319 -105 -200 -115 -468 -25 -695 54 -135 188 -295 320 -380 50 -33 162 -84
208 -96 196 -50 367 -44 519 16 145 57 216 103 310 199 160 164 234 348 235
581 1 153 -15 221 -84 375 -95 211 -362 410 -590 441 -52 7 -83 12 -100 17 -8
2 -56 0 -107 -4z m234 -49 c160 -38 282 -109 399 -232 295 -311 295 -782 -1
-1097 -174 -185 -449 -280 -695 -240 -164 26 -305 96 -428 213 -177 167 -262
377 -249 616 3 58 13 132 21 165 23 87 97 230 156 302 113 139 294 247 471
282 83 16 239 12 326 -9z"/>
<path d="M1772 1868 c-9 -9 -12 -115 -12 -414 l0 -403 58 32 c85 48 220 187
265 273 l37 72 0 214 c0 153 -3 217 -12 226 -8 8 -60 12 -168 12 -108 0 -160
-4 -168 -12z m308 -33 c8 -10 11 -69 10 -201 -1 -212 -6 -232 -82 -333 -50
-66 -80 -97 -133 -137 -54 -41 -72 -47 -78 -24 -2 10 -5 169 -6 353 -2 313 -1
336 16 346 10 6 73 11 139 11 94 0 124 -3 134 -15z"/>
<path d="M1320 1701 c-15 -28 -14 -677 1 -687 22 -13 233 -17 292 -5 l57 12 0
338 c0 249 -3 340 -12 349 -8 8 -60 12 -170 12 -145 0 -158 -1 -168 -19z m308
-23 c9 -9 12 -91 12 -309 0 -251 -2 -300 -15 -313 -29 -29 -242 -33 -270 -5
-6 6 -11 119 -12 287 -2 152 -5 285 -7 295 -2 9 -1 17 4 17 4 0 10 9 13 20 5
19 14 20 134 20 87 0 133 -4 141 -12z"/>
<path d="M876 1494 c-71 -70 97 -313 286 -414 l58 -31 0 218 c0 157 -3 222
-12 231 -8 8 -59 12 -164 12 -125 0 -155 -3 -168 -16z m302 -27 c9 -7 12 -55
12 -178 0 -192 -2 -195 -76 -140 -147 108 -250 271 -201 320 15 15 245 14 265
-2z"/>
</g>
</svg>
